<?xml version="1.0" encoding="UTF-8"?>
<svg id="Capa_1" data-name="Capa 1" xmlns="http://www.w3.org/2000/svg" viewBox="0 0 666.13 197.01">
  <defs>
    <style>
      .cls-1 {
        fill: #1d1d1b;
      }
    </style>
  </defs>
  <path class="cls-1" d="M315.67,96.68h-54.5v-3.56c0-1.66.24-3.56.24-5.22,0-14.23-.04-32.92-12.57-42.69-5.73-4.46-11.38-6.94-18.5-8.3-17.77-3.38-98.89-2.85-116.91-2.85-22.06,0-66.88-.71-87.75,6.17-4.98,1.66-9.49,4.03-13.28,7.59C1.26,58.26,1.02,73.91.55,88.38c-.48,9.25-.48,18.73-.48,28.22,0,15.65-.71,32.25,2.37,47.66,3.32,16.84,13.75,25.14,30.12,28.7,20.39,4.27,41.97,4.04,62.84,4.04h20.4c18.74,0,60.71.94,75.41-12.34,10.91-9.72,11.15-25.85,11.15-39.37h0c0-6.39-5.24-11.62-11.63-11.62h-25.99c-5.74,0-10.73,4.13-11.6,9.8-.28,1.85-.7,3.61-1.29,5.14-4.03,10.19-21.11,8.78-29.88,8.78h-24.43c-10.43,0-21.58.24-31.78-1.19-3.8-.47-7.11-1.66-10.2-3.79-8.06-5.93-7.12-27.51-7.12-36.04,0-9.25-.71-31.31,7.59-37.71,5.93-4.5,16.13-4.5,23.24-4.74,6.88-.24,13.52-.24,20.4-.24,12.81,0,88.92.11,101.74,1.66,2.84.34,6.62.97,8.77,2.84,3.3,2.87,3.32,10.67,3.56,14.94v101.5h101.93v-.03h51.36c5.97,0,10.82-4.84,10.82-10.82v-16.31c0-5.97-4.84-10.82-10.82-10.82h-51.36v.03h-54.5v-25.38h54.5v-.03h51.36c5.97,0,10.82-4.84,10.82-10.82v-12.99c0-5.97-4.84-10.82-10.82-10.82h-51.36v.03Z"/>
  <path class="cls-1" d="M485.38,36.41h-169.71v.03h-58.12c11.56,9.44,15.01,25.78,16.01,39.81h180.1l-58.64,108.3c-2.41,4.44.81,9.85,5.87,9.85h38.83c2.51,0,4.81-1.41,5.95-3.65l12.33-24.28h.28l38.78-74.86c4.06-7.84,15.26-7.91,19.41-.11l52.9,99.36c1.16,2.18,3.42,3.54,5.89,3.54h38.61c5.07,0,8.29-5.44,5.85-9.88l-74.64-135.77c-4.18-7.6-12.17-12.33-20.85-12.33h-38.86Z"/>
  <path class="cls-1" d="M624.46,114.39c-12.71,0-22.79-3.22-30.23-9.67-7.45-6.44-11.17-15.02-11.17-25.74,0-5.63,1.23-10.71,3.68-15.25,2.45-4.54,5.86-8.26,10.21-11.17-5.81-5.81-8.72-12.8-8.72-20.97,0-9.44,3.36-17.07,10.08-22.88,6.72-5.81,15.34-8.72,25.87-8.72s19.52,3,26.42,8.99c6.9,5.99,10.35,13.53,10.35,22.61,0,8.35-3,15.35-8.99,20.97,9.44,6.36,14.16,15.16,14.16,26.42s-3.72,19.3-11.17,25.74c-7.45,6.45-17.61,9.67-30.5,9.67ZM624.46,93.42c5.63,0,10.08-1.36,13.35-4.09,3.27-2.72,4.9-6.35,4.9-10.89s-1.63-8.44-4.9-11.17c-3.27-2.72-7.72-4.09-13.35-4.09s-9.81,1.36-13.07,4.09c-3.27,2.72-4.9,6.45-4.9,11.17s1.63,8.17,4.9,10.89c3.27,2.72,7.63,4.09,13.07,4.09ZM624.18,43.85c3.63,0,6.76-1.23,9.4-3.68,2.63-2.45,3.95-5.31,3.95-8.58,0-3.81-1.22-6.85-3.68-9.12-2.45-2.27-5.68-3.4-9.67-3.4s-6.94,1.09-9.4,3.27c-2.45,2.18-3.68,5.27-3.68,9.26,0,3.27,1.27,6.13,3.81,8.58,2.54,2.45,5.63,3.68,9.26,3.68Z"/>
</svg>