<?xml version="1.0" encoding="UTF-8"?>
<svg id="Capa_1" data-name="Capa 1" xmlns="http://www.w3.org/2000/svg" viewBox="0 0 571.19 174.96">
  <defs>
    <style>
      .cls-1 {
        fill: #1d1d1b;
      }
    </style>
  </defs>
  <path class="cls-1" d="M540.19,85.08c-9.45,0-16.95-2.4-22.48-7.19-5.54-4.79-8.31-11.17-8.31-19.14,0-4.18.91-7.97,2.73-11.34,1.82-3.37,4.35-6.14,7.6-8.31-4.32-4.32-6.48-9.52-6.48-15.6,0-7.02,2.5-12.69,7.5-17.01,4.99-4.32,11.41-6.48,19.24-6.48s14.51,2.23,19.65,6.68c5.13,4.46,7.7,10.06,7.7,16.81,0,6.21-2.23,11.41-6.68,15.6,7.02,4.73,10.53,11.28,10.53,19.65s-2.77,14.35-8.31,19.14c-5.54,4.8-13.1,7.19-22.69,7.19ZM540.19,69.48c4.18,0,7.49-1.01,9.93-3.04s3.65-4.72,3.65-8.1-1.21-6.28-3.65-8.3-5.74-3.04-9.93-3.04-7.29,1.01-9.72,3.04c-2.43,2.03-3.65,4.8-3.65,8.3s1.22,6.08,3.65,8.1c2.43,2.03,5.67,3.04,9.72,3.04ZM539.99,32.61c2.7,0,5.03-.91,6.99-2.73,1.96-1.82,2.94-3.95,2.94-6.38,0-2.84-.91-5.1-2.73-6.79-1.82-1.69-4.22-2.53-7.19-2.53s-5.16.81-6.99,2.43c-1.82,1.62-2.73,3.92-2.73,6.89,0,2.43.94,4.56,2.84,6.38,1.89,1.82,4.18,2.73,6.89,2.73Z"/>
  <path class="cls-1" d="M262.74,91.45h-45.37v-2.96c0-1.38.2-2.96.2-4.34,0-11.84-.03-27.4-10.46-35.53-4.77-3.71-9.47-5.78-15.4-6.91-14.79-2.82-82.31-2.37-97.31-2.37-18.36,0-55.66-.59-73.03,5.13-4.15,1.38-7.9,3.35-11.05,6.32C1.05,59.48.85,72.5.46,84.55c-.4,7.7-.4,15.59-.4,23.49,0,13.03-.59,26.84,1.97,39.67,2.76,14.01,11.45,20.92,25.07,23.88,16.98,3.56,34.94,3.36,52.31,3.36h16.98c15.59,0,50.53.79,62.77-10.27,9.08-8.09,9.28-21.52,9.28-32.77,0-3.16-.2-6.51-.39-9.67h-40.07c0,3.75-.2,8.88-1.58,12.44-3.36,8.48-17.57,7.3-24.87,7.3h-20.33c-8.68,0-17.96.2-26.45-.99-3.16-.39-5.92-1.38-8.49-3.15-6.71-4.94-5.92-22.9-5.92-30,0-7.7-.59-26.06,6.32-31.39,4.93-3.75,13.42-3.75,19.34-3.95,5.73-.2,11.25-.2,16.98-.2,10.66,0,74.01.09,84.68,1.38,2.36.28,5.51.81,7.3,2.37,2.74,2.39,2.76,8.89,2.96,12.44v84.48h84.84v-.03h51.75v-31.58h-51.75v.03h-45.37v-21.12h45.37v-.03h51.75v-28.82h-51.75v.03Z"/>
  <path class="cls-1" d="M449.4,122.95c-.23,7.73-1.68,12.77-4.33,15.11-2.6,2.28-8.5,3.43-17.68,3.43h-42.13c-9.48,0-15.86-1.76-19.16-5.27-3.24-3.57-4.85-10.92-4.85-22.05v-12.65c0-10.13,1.88-17.1,5.64-20.91,3.81-3.81,10.4-5.71,19.77-5.71h42.39c6.7,0,11.53,1,14.48,2.99,3,1.99,4.51,4.98,4.51,8.96v3.78h39.44v-6.5c0-17.1-4.45-28.5-13.35-34.18-8.9-5.68-25.52-8.52-49.85-8.52h-47.42c-.07,0-.14,0-.21,0l.11-.12h-114v.03h-48.37c9.62,7.86,12.49,21.46,13.33,33.14h96.21c-.81,4.47-1.22,9.44-1.22,14.93v38.84c0,16.93,4.42,28.97,13.26,36.11,8.84,7.09,20.93,10.63,40.46,10.63h64.06c16.99,0,29.3-3.05,36.93-9.14,7.63-6.09,11.44-16.05,11.44-29.87v-13h-39.44Z"/>
</svg>