<?xml version="1.0" encoding="UTF-8"?>
<svg id="Capa_1" data-name="Capa 1" xmlns="http://www.w3.org/2000/svg" viewBox="0 0 629.26 174.96">
  <defs>
    <style>
      .cls-1 {
        fill: #1d1d1b;
      }
    </style>
  </defs>
  <path class="cls-1" d="M618.72,39.09c4.46-4.18,6.68-9.38,6.68-15.6,0-6.75-2.57-12.36-7.7-16.81-5.13-4.46-11.68-6.68-19.65-6.68s-14.25,2.16-19.24,6.48c-5,4.32-7.5,9.99-7.5,17.01,0,6.08,2.16,11.28,6.48,15.6-3.24,2.16-5.77,4.93-7.6,8.31-1.82,3.38-2.73,7.16-2.73,11.34,0,7.97,2.77,14.35,8.31,19.14,5.54,4.8,13.03,7.19,22.48,7.19s17.15-2.4,22.69-7.19c5.54-4.79,8.31-11.17,8.31-19.14,0-8.37-3.51-14.92-10.53-19.65ZM591.07,16.61c1.82-1.62,4.15-2.43,6.99-2.43s5.37.84,7.19,2.53c1.82,1.69,2.73,3.95,2.73,6.79,0,2.43-.98,4.56-2.94,6.38-1.96,1.82-4.29,2.73-6.99,2.73s-5-.91-6.89-2.73c-1.89-1.82-2.84-3.95-2.84-6.38,0-2.97.91-5.27,2.73-6.89ZM608.19,66.44c-2.43,2.03-5.74,3.04-9.93,3.04s-7.29-1.01-9.72-3.04c-2.43-2.03-3.65-4.72-3.65-8.1s1.22-6.28,3.65-8.3c2.43-2.03,5.67-3.04,9.72-3.04s7.49,1.01,9.93,3.04c2.43,2.03,3.65,4.79,3.65,8.3s-1.21,6.08-3.65,8.1Z"/>
  <path class="cls-1" d="M436.08,126.76l-39.08-85.47h-134.25v.03h-48.37c9.62,7.86,12.49,21.46,13.33,33.14h96.81v-30.91h38.6v30.91h6.85l49.54,98.49h33.36l49.54-98.49h6.71l-.99,98.49h39.48V41.29h-72.24l-39.28,85.47Z"/>
  <path class="cls-1" d="M262.74,91.45h-45.37v-2.96c0-1.38.2-2.96.2-4.34,0-11.84-.03-27.4-10.46-35.53-4.77-3.71-9.47-5.78-15.4-6.91-14.79-2.82-82.31-2.37-97.31-2.37-18.36,0-55.66-.59-73.03,5.13-4.15,1.38-7.9,3.35-11.05,6.32C1.05,59.48.85,72.5.46,84.55c-.4,7.7-.4,15.59-.4,23.49,0,13.03-.59,26.84,1.97,39.67,2.76,14.01,11.45,20.92,25.07,23.88,16.98,3.56,34.94,3.36,52.31,3.36h16.98c15.59,0,50.53.79,62.77-10.27,9.08-8.09,9.28-21.52,9.28-32.77,0-3.16-.2-6.51-.39-9.67h-40.07c0,3.75-.2,8.88-1.58,12.44-3.36,8.48-17.57,7.3-24.87,7.3h-20.33c-8.68,0-17.96.2-26.45-.99-3.16-.39-5.92-1.38-8.49-3.15-6.71-4.94-5.92-22.9-5.92-30,0-7.7-.59-26.06,6.32-31.39,4.93-3.75,13.42-3.75,19.34-3.95,5.73-.2,11.25-.2,16.98-.2,10.66,0,74.01.09,84.68,1.38,2.36.28,5.51.81,7.3,2.37,2.74,2.39,2.76,8.89,2.96,12.44v84.48h84.84v-.03h51.75v-31.58h-51.75v.03h-45.37v-21.12h45.37v-.03h51.75v-28.82h-51.75v.03Z"/>
  <polygon class="cls-1" points="324.51 43.54 324.51 74.45 324.51 172.95 363.11 172.95 363.11 74.45 363.11 43.54 324.51 43.54"/>
</svg>