<?xml version="1.0" encoding="UTF-8"?>
<svg id="Capa_1" data-name="Capa 1" xmlns="http://www.w3.org/2000/svg" viewBox="0 0 545.83 70.49">
  <defs>
    <style>
      .cls-1 {
        fill: #bfbebf;
      }

      .cls-2 {
        fill: #fff;
      }

      .cls-3 {
        fill: #d11317;
      }

      .cls-4 {
        fill: #3b3a3a;
      }
    </style>
  </defs>
  <rect class="cls-3" width="299.8" height="70.49"/>
  <rect class="cls-1" x="301.31" width="244.52" height="70.49"/>
  <path class="cls-2" d="M149.96,36.13c0,3.25-.68,4.49-3.93,4.49h-8.78c-3.25,0-3.93-1.24-3.93-4.49v-2.41c0-2.79.68-4.49,4.3-4.49h8.04c3.62,0,4.3,1.7,4.3,4.49v2.41ZM147.14,23.47h-11.01c-6.18,0-9.86,1.54-9.86,8.11v6.69c0,6.56,3.68,8.11,9.86,8.11h11.01c6.18,0,9.86-1.55,9.86-8.11v-6.69c0-6.56-3.68-8.11-9.86-8.11"/>
  <path class="cls-2" d="M220.24,32.2c-7.36.03-8.19-.03-8.19-1.98,0-1.21,1.05-1.73,2.59-1.73h7.6c3.15,0,3.34.68,3.34,2.32h6.86v-.71c0-3.93-.74-6.62-8.66-6.62h-9.58c-8.65,0-9.03,3.12-9.03,7.18,0,5.51,1.17,6.74,11.5,6.74,8.84,0,9.64.13,9.64,2.07,0,1.73-1.48,1.89-2.94,1.89h-8.41c-1.98,0-2.94-.18-2.97-2.57h-6.86v1.55c0,4.86,2.5,6.04,8.75,6.04h8.31c9.12,0,11.16-.99,11.16-7.03,0-6.53-2.47-7.18-13.14-7.15"/>
  <polygon class="cls-2" points="64.73 31.63 50.27 31.63 50.27 23.6 43.4 23.6 43.4 46.11 50.27 46.11 50.27 37.6 64.73 37.6 64.73 46.11 71.58 46.11 71.58 23.6 64.73 23.6 64.73 31.63"/>
  <rect class="cls-2" x="75.46" y="23.6" width="6.86" height="22.51"/>
  <polygon class="cls-2" points="104.49 38.09 96.74 23.6 86.2 23.6 86.2 46.11 92.88 46.11 92.94 29.94 101.93 46.11 107.06 46.11 116.11 29.94 116.11 46.11 122.79 46.11 122.79 23.6 112.25 23.6 104.49 38.09"/>
  <rect class="cls-2" x="160.49" y="23.6" width="6.86" height="22.51"/>
  <polygon class="cls-2" points="194.74 39.96 181.86 23.6 171.23 23.6 171.23 46.12 178.09 46.12 178.15 29.76 191.03 46.12 201.66 46.12 201.66 23.6 194.8 23.6 194.74 39.96"/>
  <path class="cls-2" d="M246.44,37.28l4.33-8.46,4.45,8.46h-8.77ZM255.25,23.6h-8.93l-12.11,22.51h7.66l2.01-3.98h13.9l2.13,3.98h7.63l-12.3-22.51Z"/>
  <path class="cls-4" d="M328.82,38.5v.24c0,1.45.27,2.22.91,2.59.81.47,2.56.67,5.85.67,2.79,0,4.54-.1,6.96-.4,1.28-.17,1.92-.4,2.32-.87.44-.54.67-1.21.67-1.92,0-1.31-.57-1.95-2.12-2.29-.94-.2-.98-.2-7.1-.24h-3.23c-4.74-.03-6.59-.4-7.84-1.55-1.08-.94-1.58-2.35-1.58-4.34,0-2.49.61-4.54,1.68-5.48,1.51-1.41,4.95-1.95,12.35-1.95,4.51,0,6.93.17,8.48.64,2.79.81,3.77,2.32,3.77,5.79v.44h-5.05c-.03-1.31-.37-1.98-1.08-2.32-.94-.44-3.09-.71-5.58-.71-4.24,0-7.2.27-8.21.77-.81.37-1.21,1.14-1.21,2.19,0,.98.3,1.61.94,1.98.77.44,2.05.57,5.58.57h3.8c6.73,0,8.78.37,10.19,1.88.94.98,1.38,2.46,1.38,4.68,0,2.35-.5,3.97-1.61,5.05-1.48,1.41-4.37,1.88-11.94,1.88-8.07,0-10.6-.37-12.01-1.72-1.01-.98-1.45-2.32-1.45-4.44,0-.2,0-.71.03-1.14h5.08Z"/>
  <path class="cls-4" d="M354.95,23.16h23.85v3.94h-18.74v5.32h17.83v3.53h-17.83v5.72h18.94v3.94h-24.05v-22.44Z"/>
  <path class="cls-4" d="M382.77,23.16h19.01c3.94,0,5.72.47,6.93,1.78.98,1.08,1.45,2.83,1.45,5.38s-.3,3.83-.98,4.68c-.67.84-1.48,1.24-2.83,1.48,2.83.24,3.46,1.11,3.43,4.68v4.44h-5.21v-3.36c-.07-3.06-.77-3.67-4.17-3.63h-12.48v7h-5.15v-22.44ZM400.23,34.47c3.77,0,4.71-.67,4.71-3.36,0-3.09-.77-3.73-4.61-3.73h-12.41v7.1h12.31Z"/>
  <path class="cls-4" d="M417.23,23.16l9.82,18.33,9.96-18.33h5.75l-12.41,22.44h-6.69l-12.14-22.44h5.72Z"/>
  <path class="cls-4" d="M445.3,23.16h5.18v22.44h-5.18v-22.44Z"/>
  <path class="cls-4" d="M482.42,37.53v.37c0,3.2-.34,4.78-1.28,5.79-1.55,1.72-3.67,2.12-10.97,2.12-8.95,0-10.6-.17-12.58-1.24-1.28-.71-2.12-1.92-2.56-3.63-.3-1.14-.47-3.77-.47-6.93,0-6.26.64-8.38,2.99-9.69,1.92-1.08,4.24-1.35,11.34-1.35,7.77,0,10.36.44,11.77,2.02.98,1.04,1.48,2.99,1.48,5.72h-4.95c0-3.26-.67-3.57-8.07-3.57-5.25,0-6.76.13-7.84.71-1.28.67-1.55,1.92-1.55,6.76,0,6.53.54,7.03,7.54,7.03l6.86-.13c2.42-.24,3.26-1.14,3.26-3.46v-.5h5.01Z"/>
  <path class="cls-4" d="M485.94,23.16h23.85v3.94h-18.74v5.32h17.83v3.53h-17.83v5.72h18.94v3.94h-24.05v-22.44Z"/>
</svg>